<svg id="visual" viewBox="0 0 900 600" width="900" height="600" xmlns="http://www.w3.org/2000/svg" xmlns:xlink="http://www.w3.org/1999/xlink" version="1.1"><path d="M0 237L180 237L180 211L360 211L360 206L540 206L540 221L720 221L720 235L900 235L900 214L900 0L900 0L720 0L720 0L540 0L540 0L360 0L360 0L180 0L180 0L0 0Z" fill="#0f0f10"></path><path d="M0 207L180 207L180 173L360 173L360 189L540 189L540 193L720 193L720 195L900 195L900 189L900 0L900 0L720 0L720 0L540 0L540 0L360 0L360 0L180 0L180 0L0 0Z" fill="#161a36"></path><path d="M0 142L180 142L180 155L360 155L360 139L540 139L540 167L720 167L720 153L900 153L900 133L900 0L900 0L720 0L720 0L540 0L540 0L360 0L360 0L180 0L180 0L0 0Z" fill="#17235e"></path><path d="M0 125L180 125L180 100L360 100L360 100L540 100L540 129L720 129L720 119L900 119L900 121L900 0L900 0L720 0L720 0L540 0L540 0L360 0L360 0L180 0L180 0L0 0Z" fill="#182b88"></path><path d="M0 65L180 65L180 65L360 65L360 79L540 79L540 64L720 64L720 71L900 71L900 69L900 0L900 0L720 0L720 0L540 0L540 0L360 0L360 0L180 0L180 0L0 0Z" fill="#2430b3"></path><path d="M0 43L180 43L180 40L360 40L360 35L540 35L540 29L720 29L720 44L900 44L900 33L900 0L900 0L720 0L720 0L540 0L540 0L360 0L360 0L180 0L180 0L0 0Z" fill="#3c31dd"></path></svg>