<svg id="visual" viewBox="0 0 900 600" width="900" height="600" xmlns="http://www.w3.org/2000/svg" xmlns:xlink="http://www.w3.org/1999/xlink" version="1.1"><path d="M0 156L129 193L257 171L386 248L514 172L643 198L771 232L900 233L900 0L771 0L643 0L514 0L386 0L257 0L129 0L0 0Z" fill="#3c31dd"></path><path d="M0 138L129 159L257 194L386 133L514 173L643 119L771 184L900 168L900 0L771 0L643 0L514 0L386 0L257 0L129 0L0 0Z" fill="#202fa8"></path><path d="M0 147L129 156L257 112L386 105L514 142L643 113L771 157L900 103L900 0L771 0L643 0L514 0L386 0L257 0L129 0L0 0Z" fill="#172773"></path><path d="M0 66L129 68L257 70L386 85L514 98L643 104L771 99L900 82L900 0L771 0L643 0L514 0L386 0L257 0L129 0L0 0Z" fill="#171c40"></path><path d="M0 35L129 44L257 54L386 52L514 43L643 58L771 55L900 50L900 0L771 0L643 0L514 0L386 0L257 0L129 0L0 0Z" fill="#0f0f10"></path></svg>