<svg id="visual" viewBox="0 0 900 600" width="900" height="600" xmlns="http://www.w3.org/2000/svg" xmlns:xlink="http://www.w3.org/1999/xlink" version="1.1"><path d="M0 120L21.5 133.2C43 146.3 86 172.7 128.8 166.3C171.7 160 214.3 121 257.2 106.5C300 92 343 102 385.8 117.2C428.7 132.3 471.3 152.7 514.2 151.5C557 150.3 600 127.7 642.8 130.3C685.7 133 728.3 161 771.2 156.3C814 151.7 857 114.3 878.5 95.7L900 77L900 0L878.5 0C857 0 814 0 771.2 0C728.3 0 685.7 0 642.8 0C600 0 557 0 514.2 0C471.3 0 428.7 0 385.8 0C343 0 300 0 257.2 0C214.3 0 171.7 0 128.8 0C86 0 43 0 21.5 0L0 0Z" fill="#0f0f10" stroke-linecap="round" stroke-linejoin="miter"></path></svg>