<svg id="visual" viewBox="0 0 900 600" width="900" height="600" xmlns="http://www.w3.org/2000/svg" xmlns:xlink="http://www.w3.org/1999/xlink" version="1.1"><rect x="0" y="0" width="900" height="600" fill="#dd3f31"></rect><path d="M0 381L21.5 384.8C43 388.7 86 396.3 128.8 405.2C171.7 414 214.3 424 257.2 424.8C300 425.7 343 417.3 385.8 409.3C428.7 401.3 471.3 393.7 514.2 389.3C557 385 600 384 642.8 380.2C685.7 376.3 728.3 369.7 771.2 372.2C814 374.7 857 386.3 878.5 392.2L900 398L900 601L878.5 601C857 601 814 601 771.2 601C728.3 601 685.7 601 642.8 601C600 601 557 601 514.2 601C471.3 601 428.7 601 385.8 601C343 601 300 601 257.2 601C214.3 601 171.7 601 128.8 601C86 601 43 601 21.5 601L0 601Z" fill="#2e2e31"></path><path d="M0 411L21.5 414.5C43 418 86 425 128.8 436.3C171.7 447.7 214.3 463.3 257.2 463.5C300 463.7 343 448.3 385.8 447C428.7 445.7 471.3 458.3 514.2 464.2C557 470 600 469 642.8 463.3C685.7 457.7 728.3 447.3 771.2 438.7C814 430 857 423 878.5 419.5L900 416L900 601L878.5 601C857 601 814 601 771.2 601C728.3 601 685.7 601 642.8 601C600 601 557 601 514.2 601C471.3 601 428.7 601 385.8 601C343 601 300 601 257.2 601C214.3 601 171.7 601 128.8 601C86 601 43 601 21.5 601L0 601Z" fill="#242427"></path><path d="M0 482L21.5 478.3C43 474.7 86 467.3 128.8 467.2C171.7 467 214.3 474 257.2 477.2C300 480.3 343 479.7 385.8 479.3C428.7 479 471.3 479 514.2 476C557 473 600 467 642.8 461.3C685.7 455.7 728.3 450.3 771.2 453.7C814 457 857 469 878.5 475L900 481L900 601L878.5 601C857 601 814 601 771.2 601C728.3 601 685.7 601 642.8 601C600 601 557 601 514.2 601C471.3 601 428.7 601 385.8 601C343 601 300 601 257.2 601C214.3 601 171.7 601 128.8 601C86 601 43 601 21.5 601L0 601Z" fill="#1a1a1d"></path><path d="M0 529L21.5 524C43 519 86 509 128.8 504C171.7 499 214.3 499 257.2 496.2C300 493.3 343 487.7 385.8 485.7C428.7 483.7 471.3 485.3 514.2 486.8C557 488.3 600 489.7 642.8 496.3C685.7 503 728.3 515 771.2 520.5C814 526 857 525 878.5 524.5L900 524L900 601L878.5 601C857 601 814 601 771.2 601C728.3 601 685.7 601 642.8 601C600 601 557 601 514.2 601C471.3 601 428.7 601 385.8 601C343 601 300 601 257.2 601C214.3 601 171.7 601 128.8 601C86 601 43 601 21.5 601L0 601Z" fill="#101013"></path><path d="M0 538L21.5 540.3C43 542.7 86 547.3 128.8 552C171.7 556.7 214.3 561.3 257.2 557.3C300 553.3 343 540.7 385.8 541.5C428.7 542.3 471.3 556.7 514.2 559.7C557 562.7 600 554.3 642.8 554C685.7 553.7 728.3 561.3 771.2 560C814 558.7 857 548.3 878.5 543.2L900 538L900 601L878.5 601C857 601 814 601 771.2 601C728.3 601 685.7 601 642.8 601C600 601 557 601 514.2 601C471.3 601 428.7 601 385.8 601C343 601 300 601 257.2 601C214.3 601 171.7 601 128.8 601C86 601 43 601 21.5 601L0 601Z" fill="#000000"></path></svg>