<svg id="visual" viewBox="0 0 900 600" width="900" height="600" xmlns="http://www.w3.org/2000/svg" xmlns:xlink="http://www.w3.org/1999/xlink" version="1.1"><rect x="0" y="0" width="900" height="600" fill="#3c31dd"></rect><path d="M0 506L30 513.3C60 520.7 120 535.3 180 536.2C240 537 300 524 360 511.5C420 499 480 487 540 485.7C600 484.3 660 493.7 720 493.3C780 493 840 483 870 478L900 473L900 601L870 601C840 601 780 601 720 601C660 601 600 601 540 601C480 601 420 601 360 601C300 601 240 601 180 601C120 601 60 601 30 601L0 601Z" fill="#0f0f10" stroke-linecap="round" stroke-linejoin="miter"></path></svg>