<svg id="visual" viewBox="0 0 900 600" width="900" height="600" xmlns="http://www.w3.org/2000/svg" xmlns:xlink="http://www.w3.org/1999/xlink" version="1.1"><rect x="0" y="0" width="900" height="600" fill="#0f0f10"></rect><path d="M0 471L21.5 478.2C43 485.3 86 499.7 128.8 499C171.7 498.3 214.3 482.7 257.2 473.3C300 464 343 461 385.8 461.3C428.7 461.7 471.3 465.3 514.2 459.2C557 453 600 437 642.8 422.5C685.7 408 728.3 395 771.2 394.8C814 394.7 857 407.3 878.5 413.7L900 420L900 601L878.5 601C857 601 814 601 771.2 601C728.3 601 685.7 601 642.8 601C600 601 557 601 514.2 601C471.3 601 428.7 601 385.8 601C343 601 300 601 257.2 601C214.3 601 171.7 601 128.8 601C86 601 43 601 21.5 601L0 601Z" fill="#dd3f31" stroke-linecap="round" stroke-linejoin="miter"></path></svg>