<svg id="visual" viewBox="0 0 900 600" width="900" height="600" xmlns="http://www.w3.org/2000/svg" xmlns:xlink="http://www.w3.org/1999/xlink" version="1.1"><rect x="0" y="0" width="900" height="600" fill="#0f0f10"></rect><path d="M0 479L21.5 486.8C43 494.7 86 510.3 128.8 505C171.7 499.7 214.3 473.3 257.2 471.3C300 469.3 343 491.7 385.8 501C428.7 510.3 471.3 506.7 514.2 491.3C557 476 600 449 642.8 447C685.7 445 728.3 468 771.2 473.3C814 478.7 857 466.3 878.5 460.2L900 454L900 601L878.5 601C857 601 814 601 771.2 601C728.3 601 685.7 601 642.8 601C600 601 557 601 514.2 601C471.3 601 428.7 601 385.8 601C343 601 300 601 257.2 601C214.3 601 171.7 601 128.8 601C86 601 43 601 21.5 601L0 601Z" fill="#3c31dd" stroke-linecap="round" stroke-linejoin="miter"></path></svg>